<svg id="Capa_1" enable-background="new 0 0 512 512" height="512" viewBox="0 0 512 512" width="512" xmlns="http://www.w3.org/2000/svg"><g><g><g><path d="m368.259 319.778c-35.408 35.408-108.704 19.518-108.704 19.518s-15.89-73.296 19.518-108.703c35.408-35.408 108.704-19.518 108.704-19.518s15.889 73.296-19.518 108.703z" fill="#a4fcc4"/></g><g><path d="m143.741 319.778c35.408 35.408 108.704 19.518 108.704 19.518s15.89-73.296-19.518-108.703c-35.408-35.408-108.704-19.518-108.704-19.518s-15.889 73.296 19.518 108.703z" fill="#a4fcc4"/></g></g><g><path d="m391.331 332.852h-125.331v-156.017c17.539-11.771 74.835-51.12 88.36-71.686 6.643-10.107 14.129-24.321 13.038-44.688-.862-16.097-7.677-31.211-19.189-42.559-11.714-11.544-27.02-17.902-43.1-17.902-21.398 0-39.122 14.671-48.955 25.009-9.606-10.395-27.06-25.009-49.267-25.009-16.079 0-31.384 6.358-43.097 17.903-11.512 11.347-18.327 26.461-19.189 42.559-1.102 20.645 6.918 35.396 13.047 44.698 13.396 20.325 70.546 59.592 88.352 71.545v156.146h-125.331c-5.523 0-10 4.478-10 10v50.468c0 5.522 4.477 10 10 10h10.212l27.974 101.342c1.197 4.336 5.142 7.339 9.64 7.339h175.011c4.498 0 8.443-3.003 9.64-7.339l27.974-101.342h10.212c5.523 0 10-4.478 10-10v-50.468c-.001-5.522-4.478-9.999-10.001-9.999zm-216.982-238.697c-7.467-11.333-10.391-21.091-9.775-32.626 1.225-22.899 20.207-41.529 42.313-41.529 22.932 0 40.623 25.969 40.786 26.211 1.822 2.745 4.886 4.408 8.181 4.46 3.276.067 6.409-1.532 8.317-4.219.187-.264 19.032-26.452 40.938-26.452 22.108 0 41.091 18.63 42.317 41.53.617 11.508-2.308 21.268-9.777 32.632-10.028 15.249-57.99 49.342-81.553 65.23-23.643-15.935-71.782-50.117-81.747-65.237zm-43.68 258.697h250.663v30.468h-250.663zm205.223 139.148h-159.784l-24.479-88.681h208.742z" fill="#020288"/></g></g></svg>