<svg id="Capa_1" enable-background="new 0 0 511.978 511.978" height="512" viewBox="0 0 511.978 511.978" width="512" xmlns="http://www.w3.org/2000/svg"><g><g><g><g><g><path d="m317.943 85.781 17.65 17.65 24.363-24.363c16.478-16.478 16.478-43.193 0-59.671l-10.277-10.277c-2.169-2.169-5.686-2.169-7.856 0l-23.88 23.88c-14.575 14.576-14.575 38.206 0 52.781z" fill="#fc5a95"/><path d="m359.96 79.068-24.368 24.368-17.653-17.653c-3.032-3.032-5.434-6.459-7.206-10.114l22.914-22.914c12.08-12.08 15.299-29.67 9.664-44.692 2.077-1.025 4.645-.672 6.369 1.052l10.28 10.28c16.475 16.476 16.475 43.197 0 59.673z" fill="#fb3a82"/></g></g></g><g><g><path d="m405.299 158.907c-2.3 44.451-31.12 81.244-70.343 95.837-37.508-18.562-62.378-58.133-60.078-102.584 2.211-42.741 28.942-78.402 65.863-94.055 2.825-1.198 6.065-1.03 8.752.453 35.109 19.38 58.017 57.609 55.806 100.349z" fill="#64e0c4"/><path d="m405.299 158.906c-2.3 44.451-31.12 81.244-70.343 95.837-5.392-2.667-10.517-5.768-15.337-9.252 30.741-17.705 52.164-50.146 54.133-88.216 1.97-38.07-15.991-72.549-44.741-93.331 3.775-2.174 7.692-4.128 11.734-5.841 2.823-1.197 6.061-1.027 8.746.454 35.111 19.378 58.02 57.607 55.808 100.349z" fill="#27d1b3"/></g></g><g><path d="m441.719 250.673c23.738-1.173 48.5-14.803 59.408-34.379 1.62-2.908 1.621-6.485.001-9.393-10.902-19.577-35.671-33.214-59.41-34.388v-7.104c0-6.338-5.862-11.01-12.058-9.679-25.765 5.535-45.079 28.444-45.079 55.863s19.314 50.328 45.079 55.863c6.197 1.331 12.058-3.341 12.058-9.679v-7.104z" fill="#17998c"/><path d="m384.579 211.592c0-4.805.597-9.465 1.718-13.921 5.25 20.991 22.119 37.38 43.365 41.938 6.196 1.332 12.057-3.335 12.057-9.669v-7.106c19.797-.983 40.314-10.623 52.896-25.155 2.512 2.89 4.703 5.97 6.516 9.225 1.616 2.912 1.616 6.48 0 9.392-10.914 19.578-35.676 33.201-59.412 34.38v7.106c0 6.334-5.861 11.001-12.057 9.669-25.766-5.526-45.083-28.439-45.083-55.859z" fill="#138b80"/></g><path d="m368.766 294.421c-28.48 17.195-63.329 14.765-88.792-3.404-4.22-30.994 9.86-62.965 38.34-80.16 27.385-16.534 60.657-14.923 85.812 1.377 1.925 1.247 3.178 3.323 3.385 5.607 2.71 29.852-11.361 60.046-38.745 76.58z" fill="#138b80"/><path d="m293.129 169.141c-7.98 32.298-34.34 55.221-65.192 60.378-24.9-18.933-37.551-51.495-29.571-83.792 7.673-31.055 32.339-53.443 61.652-59.705 2.243-.479 4.597.102 6.359 1.571 23.024 19.193 34.425 50.493 26.752 81.548z" fill="#64e0c4"/><path d="m315.403 413.293-214.57-214.57s-106.863 97.891-89.229 303.8c205.908 17.633 303.799-89.23 303.799-89.23z" fill="#eaf6ff"/><path d="m11.603 502.527c-.665-7.75-1.146-15.344-1.471-22.783 190.359 8.266 281.024-90.7 281.024-90.7l24.246 24.247s-97.884 106.864-303.799 89.236z" fill="#d9ecfd"/><g><g><g><path d="m270.023 218.527 17.65 17.65 24.363-24.363c16.478-16.478 16.478-43.193 0-59.671l-10.277-10.277c-2.169-2.169-5.686-2.169-7.856 0l-23.88 23.88c-14.575 14.575-14.575 38.206 0 52.781z" fill="#fc5a95"/><path d="m312.039 211.814-24.368 24.368-17.653-17.653c-3.032-3.032-5.434-6.459-7.206-10.114l22.914-22.914c12.08-12.08 15.299-29.67 9.664-44.692 2.077-1.025 4.645-.672 6.369 1.052l10.28 10.28c16.476 16.475 16.476 43.197 0 59.673z" fill="#fb3a82"/></g><g><path d="m291.101 239.605-17.65-17.65 24.363-24.363c16.478-16.478 43.193-16.478 59.671 0l10.277 10.277c2.169 2.169 2.169 5.686 0 7.856l-23.88 23.88c-14.576 14.575-38.206 14.575-52.781 0z" fill="#fc78a8"/><path d="m367.76 215.725-23.876 23.876c-14.579 14.579-38.213 14.579-52.785.007l-17.542-17.542c14.572 14.572 38.206 14.572 52.785-.007l23.876-23.876c1.488-1.488 1.959-3.607 1.405-5.49 2.063 1.426 4.029 3.06 5.863 4.894l10.28 10.28c2.168 2.168 2.168 5.684-.006 7.858z" fill="#fc5a95"/></g></g></g><g><g><g><path d="m382.966 289.147 18.312 18.312 25.278-25.278c17.096-17.096 17.096-44.815 0-61.911l-10.662-10.662c-2.251-2.251-5.9-2.251-8.151 0l-24.777 24.777c-15.122 15.122-15.122 39.64 0 54.762z" fill="#fc5a95"/><path d="m426.56 282.182-25.283 25.283-18.315-18.315c-3.146-3.146-5.638-6.701-7.477-10.494l23.774-23.774c12.533-12.533 15.873-30.784 10.027-46.37 2.155-1.063 4.82-.697 6.608 1.092l10.666 10.666c17.095 17.093 17.095 44.817 0 61.912z" fill="#fb3a82"/></g><g><path d="m404.836 311.016-18.312-18.312 25.277-25.278c17.096-17.096 44.815-17.096 61.911 0l10.662 10.662c2.251 2.251 2.251 5.9 0 8.151l-24.777 24.777c-15.122 15.122-39.639 15.122-54.761 0z" fill="#fc78a8"/><path d="m484.372 286.24-24.772 24.772c-15.126 15.126-39.648 15.126-54.767.007l-18.201-18.201c15.119 15.119 39.64 15.119 54.767-.007l24.773-24.773c1.544-1.544 2.033-3.742 1.458-5.696 2.14 1.48 4.18 3.175 6.084 5.078l10.666 10.666c2.248 2.25 2.248 5.899-.008 8.154z" fill="#fc5a95"/></g></g></g><g><g><g><path d="m368.537 153.466 17.65 17.65 24.363-24.363c16.478-16.478 16.478-43.193 0-59.671l-10.277-10.277c-2.169-2.169-5.686-2.169-7.856 0l-23.88 23.88c-14.575 14.576-14.575 38.206 0 52.781z" fill="#fc5a95"/><path d="m410.554 146.753-24.368 24.368-17.653-17.653c-3.032-3.032-5.434-6.459-7.206-10.114l22.914-22.914c12.08-12.08 15.299-29.67 9.664-44.692 2.077-1.025 4.645-.672 6.369 1.052l10.28 10.28c16.475 16.476 16.475 43.197 0 59.673z" fill="#fb3a82"/></g><g><path d="m389.615 174.544-17.65-17.65 24.363-24.363c16.478-16.478 43.193-16.478 59.671 0l10.277 10.277c2.169 2.169 2.169 5.686 0 7.856l-23.88 23.88c-14.576 14.575-38.206 14.575-52.781 0z" fill="#fc78a8"/><path d="m466.274 150.664-23.876 23.876c-14.579 14.579-38.213 14.579-52.785.007l-17.542-17.542c14.572 14.572 38.206 14.572 52.785-.007l23.876-23.876c1.488-1.488 1.959-3.607 1.405-5.49 2.063 1.426 4.029 3.06 5.863 4.894l10.28 10.28c2.168 2.168 2.168 5.685-.006 7.858z" fill="#fc5a95"/></g></g></g><ellipse cx="208.117" cy="306.008" fill="#64b9fc" rx="38.381" ry="151.724" transform="matrix(.707 -.707 .707 .707 -155.424 236.789)"/><path d="m315.402 413.291c-14.991 14.991-75.172-20.895-134.42-80.143-59.255-59.255-95.14-119.437-80.15-134.427.636-.636 1.351-1.181 2.157-1.633 11.703 26.566 39.93 64.636 77.619 102.325 56.745 56.745 114.338 92.051 132.277 81.776 6.696 15.209 7.969 26.65 2.517 32.102z" fill="#31a7fb"/><g><path d="m212.028 163.717c-1.173-23.738-14.803-48.5-34.379-59.408-2.908-1.62-6.485-1.621-9.393-.001-19.577 10.902-33.214 35.671-34.388 59.41h-7.104c-6.338 0-11.01 5.862-9.679 12.058 5.535 25.765 28.444 45.079 55.863 45.079s50.328-19.314 55.863-45.079c1.331-6.197-3.341-12.058-9.679-12.058h-7.104z" fill="#17998c"/><path d="m172.947 220.857c-4.805 0-9.465-.597-13.921-1.718 20.991-5.25 37.38-22.119 41.938-43.365 1.332-6.196-3.335-12.057-9.669-12.057h-7.106c-.983-19.797-10.623-40.314-25.155-52.896 2.891-2.512 5.97-4.703 9.225-6.516 2.912-1.616 6.48-1.616 9.392 0 19.578 10.914 33.201 35.676 34.38 59.412h7.106c6.334 0 11.001 5.861 9.669 12.057-5.526 25.767-28.439 45.083-55.859 45.083z" fill="#138b80"/></g><g><g><path d="m293.688 247.787c-1.719 33.224-23.261 60.725-52.577 71.632-28.035-13.874-46.624-43.451-44.905-76.675 1.653-31.946 21.633-58.601 49.229-70.3 2.112-.895 4.533-.77 6.541.338 26.242 14.484 43.364 43.058 41.712 75.005z" fill="#64e0c4"/><path d="m293.688 247.785c-1.719 33.224-23.261 60.725-52.578 71.632-4.031-1.993-7.861-4.312-11.464-6.916 22.977-13.233 38.989-37.481 40.461-65.937s-11.952-54.226-33.441-69.76c2.822-1.625 5.75-3.085 8.771-4.366 2.11-.895 4.53-.768 6.537.34 26.243 14.486 43.367 43.061 41.714 75.007z" fill="#27d1b3"/></g></g><g><path d="m355.096 396.984c-37.284 0-69.31-22.517-83.215-54.697 13.905-32.18 45.931-54.697 83.215-54.697 35.85 0 66.838 20.818 81.53 51.027 1.124 2.312 1.124 5.029 0 7.341-14.692 30.208-45.68 51.026-81.53 51.026z" fill="#64e0c4"/><path d="m355.098 396.984c-37.284 0-69.31-22.517-83.215-54.697 1.997-4.626 4.37-9.048 7.076-13.23 16.141 24.95 44.206 41.466 76.139 41.466s59.997-16.517 76.138-41.466c1.982 3.064 3.786 6.256 5.394 9.563 1.123 2.31 1.122 5.026-.002 7.336-14.691 30.209-45.68 51.028-81.53 51.028z" fill="#27d1b3"/></g><g><g><path d="m149.837 253.889 17.65 17.65 24.363-24.363c16.478-16.478 16.478-43.193 0-59.671l-10.277-10.277c-2.169-2.169-5.686-2.169-7.856 0l-23.88 23.88c-14.575 14.576-14.575 38.207 0 52.781z" fill="#fc5a95"/><path d="m191.853 247.176-24.368 24.368-17.653-17.653c-3.032-3.032-5.434-6.459-7.206-10.114l22.914-22.914c12.08-12.08 15.299-29.67 9.664-44.692 2.077-1.025 4.645-.672 6.369 1.052l10.28 10.28c16.476 16.476 16.476 43.197 0 59.673z" fill="#fb3a82"/></g><g><path d="m170.914 274.967-17.65-17.65 24.363-24.363c16.478-16.478 43.193-16.478 59.671 0l10.277 10.277c2.169 2.169 2.169 5.686 0 7.856l-23.88 23.88c-14.575 14.575-38.206 14.575-52.781 0z" fill="#fc78a8"/><path d="m247.574 251.088-23.876 23.876c-14.579 14.579-38.213 14.579-52.785.007l-17.542-17.542c14.572 14.572 38.206 14.572 52.785-.007l23.876-23.876c1.488-1.488 1.959-3.607 1.405-5.49 2.063 1.426 4.029 3.06 5.863 4.894l10.28 10.28c2.167 2.167 2.167 5.684-.006 7.858z" fill="#fc5a95"/></g></g><g><g><path d="m246.978 348.454 17.65 17.65 24.363-24.363c16.478-16.478 16.478-43.193 0-59.671l-10.277-10.277c-2.169-2.169-5.686-2.169-7.856 0l-23.88 23.88c-14.575 14.576-14.575 38.206 0 52.781z" fill="#fc5a95"/><path d="m288.995 341.741-24.368 24.368-17.653-17.653c-3.032-3.032-5.434-6.459-7.206-10.114l22.914-22.914c12.08-12.08 15.299-29.67 9.664-44.692 2.077-1.025 4.645-.672 6.369 1.052l10.28 10.28c16.476 16.476 16.476 43.197 0 59.673z" fill="#fb3a82"/></g><g><path d="m268.056 369.532-17.65-17.65 24.363-24.363c16.478-16.478 43.193-16.478 59.671 0l10.277 10.277c2.169 2.169 2.169 5.686 0 7.856l-23.88 23.88c-14.575 14.575-38.206 14.575-52.781 0z" fill="#fc78a8"/><path d="m344.715 345.652-23.876 23.876c-14.579 14.579-38.213 14.579-52.785.007l-17.542-17.542c14.572 14.572 38.206 14.572 52.785-.007l23.876-23.876c1.488-1.488 1.959-3.607 1.405-5.49 2.063 1.426 4.029 3.06 5.863 4.894l10.28 10.28c2.168 2.168 2.168 5.685-.006 7.858z" fill="#fc5a95"/></g></g><g><g><g><path d="m229.977 122.309 17.65 17.65 24.363-24.363c16.478-16.478 16.478-43.193 0-59.671l-10.277-10.277c-2.169-2.169-5.686-2.169-7.856 0l-23.88 23.88c-14.575 14.576-14.575 38.206 0 52.781z" fill="#fc5a95"/><path d="m271.993 115.596-24.368 24.368-17.653-17.653c-3.032-3.032-5.434-6.459-7.206-10.114l22.914-22.914c12.08-12.08 15.299-29.67 9.664-44.692 2.077-1.025 4.645-.672 6.369 1.052l10.28 10.28c16.476 16.476 16.476 43.197 0 59.673z" fill="#fb3a82"/></g><g><path d="m251.054 143.387-17.65-17.65 24.363-24.363c16.478-16.478 43.193-16.478 59.671 0l10.277 10.277c2.169 2.169 2.169 5.686 0 7.856l-23.88 23.88c-14.575 14.575-38.206 14.575-52.781 0z" fill="#fc78a8"/><path d="m327.713 119.507-23.876 23.876c-14.579 14.579-38.213 14.579-52.785.007l-17.542-17.542c14.572 14.572 38.206 14.572 52.785-.007l23.876-23.876c1.488-1.488 1.959-3.607 1.405-5.49 2.063 1.426 4.029 3.06 5.863 4.894l10.28 10.28c2.168 2.168 2.168 5.685-.006 7.858z" fill="#fc5a95"/></g></g></g></g><path d="m507.682 203.252c-9.287-16.677-27.383-29.784-48-35.387l11.899-11.899c5.087-5.089 5.087-13.371-.001-18.462l-10.277-10.276c-8.656-8.656-19.739-13.433-31.079-14.355-.963-11.664-6.018-22.742-14.37-31.094l-10.275-10.274c-2.466-2.467-5.745-3.826-9.232-3.826s-6.766 1.358-9.231 3.824l-4.138 4.138c-2.249-2.486-4.592-4.87-7.034-7.139 7.835-18.542 3.769-39.954-10.683-54.409l-10.279-10.276c-5.09-5.09-13.371-5.088-18.462 0l-23.881 23.881c-12.432 12.433-16.351 30.898-10.38 47.149-2.403 2.334-4.708 4.771-6.902 7.307-1.223-.192-2.451-.337-3.683-.437-.939-11.748-5.952-22.666-14.381-31.095l-10.275-10.274c-2.466-2.467-5.745-3.825-9.232-3.825s-6.766 1.357-9.231 3.823l-23.88 23.88c-8.466 8.466-13.128 19.722-13.128 31.694 0 2.98.29 5.916.854 8.775-3.612 3.846-6.863 7.984-9.715 12.39-6-8.086-13.291-14.817-21.385-19.327-5.149-2.868-11.545-2.868-16.692-.002-19.304 10.75-34.072 34.103-37.544 58.462h-.299c-5.277 0-10.206 2.354-13.522 6.458-3.335 4.128-4.606 9.477-3.489 14.676.782 3.64 1.882 7.166 3.249 10.563-7.233-.468-12.947 1.251-17.081 5.151-.051.044-.106.083-.156.129-1.786 1.637-44.053 41.02-71.338 121.98-1.323 3.926.787 8.18 4.712 9.503.794.268 1.602.395 2.396.395 3.13 0 6.051-1.976 7.106-5.106 16.357-48.544 38.641-81.701 52.993-99.688 2.085 7.938 6.091 17.206 12.027 27.783 12.956 23.082 34.252 50.782 59.967 77.996 1.475 1.561 3.462 2.349 5.453 2.349 1.848 0 3.7-.679 5.149-2.049 3.011-2.845 3.146-7.592.3-10.603-1.631-1.726-3.241-3.454-4.834-5.181l18.174-18.175c3.067.654 6.222 1 9.431 1 1.471 0 2.931-.072 4.376-.211 6.821 11.075 16.039 20.551 26.895 27.67 0 11.973 4.633 24.435 13.099 32.901l2.273 2.273-12.445 12.445c-11.121-8.876-22.569-18.859-33.955-29.66-3.006-2.852-7.752-2.725-10.603.28s-2.725 7.752.28 10.603c27.349 25.942 55.226 47.453 78.496 60.57 10.749 6.059 20.149 10.128 28.187 12.231-11.988 9.592-30.766 22.728-56.479 35.28-40.253 19.65-105.046 41.159-193.274 39.017 33.123-15.222 66.632-34.314 99.952-56.996 3.424-2.331 4.31-6.997 1.979-10.421s-6.996-4.311-10.42-1.979c-36.837 25.078-73.863 45.659-110.264 61.329 7.355-17.073 15.827-34.397 25.311-51.676 1.993-3.631.665-8.19-2.966-10.184-3.63-1.992-8.19-.665-10.183 2.967-7.35 13.392-14.11 26.819-20.239 40.148-1.038-41.683 3.06-81.573 12.28-118.939.992-4.021-1.463-8.086-5.485-9.078-4.019-.993-8.085 1.463-9.079 5.484-11.942 48.396-15.612 100.785-10.909 155.708.312 3.637 3.196 6.521 6.833 6.833 15.449 1.323 30.706 1.983 45.74 1.983 31.354-.001 61.72-2.874 90.691-8.602 34.374-6.795 66.879-17.601 96.615-32.116 50.905-24.85 75.885-51.767 76.924-52.9.041-.045.075-.094.115-.139 4.086-4.322 5.782-10.377 5.087-18.084 9.294 2.865 19.027 4.348 28.961 4.348 9.359 0 18.631-1.322 27.56-3.931 3.976-1.161 6.257-5.326 5.096-9.302-1.161-3.977-5.324-6.258-9.302-5.097-7.562 2.209-15.419 3.329-23.354 3.329-12.859 0-25.322-2.912-36.652-8.494 2.73-1.731 5.317-3.774 7.696-6.153l7.528-7.529 5.741 5.741c1.464 1.464 3.384 2.196 5.303 2.196s3.839-.732 5.303-2.196c2.929-2.93 2.929-7.678 0-10.607l-5.741-5.741 6.771-6.913h4.327l19.344 19.344c1.464 1.464 3.384 2.196 5.303 2.196s3.839-.732 5.303-2.196c2.929-2.93 2.929-7.678 0-10.607l-8.737-8.736h27.45c4.142 0 7.5-3.357 7.5-7.5s-3.358-7.5-7.5-7.5h-27.572l9.741-9.74c2.929-2.93 2.929-7.678 0-10.607-2.929-2.928-7.678-2.928-10.606 0l-20.348 20.348h-3.412l-6.983-7.458 6.199-6.199c2.929-2.93 2.929-7.678 0-10.607-2.929-2.928-7.678-2.928-10.606 0l-6.631 6.631c-7.003-5.095-15.047-8.124-23.292-9.105 13.314-8.484 28.639-12.959 44.571-12.959 32.088 0 60.744 17.936 74.787 46.81.116.239.116.537-.001.777-5.653 11.624-14.108 21.936-24.451 29.822-3.294 2.511-3.928 7.218-1.417 10.512 1.476 1.936 3.71 2.952 5.97 2.952 1.585 0 3.184-.5 4.542-1.536 12.198-9.3 22.173-21.469 28.845-35.188 2.118-4.354 2.118-9.551 0-13.901-1.02-2.097-2.114-4.15-3.275-6.16 9.301-1.6 17.963-6.017 24.805-12.857l24.776-24.776c2.505-2.506 3.885-5.837 3.885-9.379 0-3.543-1.379-6.874-3.885-9.38l-10.662-10.662c-3.687-3.687-7.838-6.738-12.319-9.109 17.52-6.486 32.853-18.478 40.983-33.068 2.869-5.153 2.869-11.549.003-16.697zm-56.986-65.417 8.902 8.901-22.505 22.504c-11.628 11.629-30.547 11.629-42.174 0l-12.347-12.346 19.06-19.06c13.527-13.526 35.536-13.526 49.064.001zm-147.579 65.061c13.527-13.527 35.537-13.527 49.064 0l8.901 8.9-22.505 22.506c-9.953 9.953-25.809 11.499-37.455 3.847-.571-9.351-2.618-18.518-6.069-27.19zm-10.606-10.608-4.587 4.587c-4.696-7.525-10.467-14.273-17.117-20.04 1.252-2.092 2.762-4.029 4.519-5.786l9.947-9.948c6.275-1.105 12.355-3.55 17.782-7.332l3.677 3.677c5.838 5.837 9.332 13.392 10.026 21.523-8.891 1.984-17.342 6.414-24.247 13.319zm92.527-11.748c-2.334 4.244-4.179 8.699-5.495 13.343-5.662-1.276-11.463-1.993-17.327-2.138-.666-.646-1.347-1.268-2.04-1.869l17.081-17.082zm11.307-97.055 8.901 8.901c5.787 5.787 9.306 13.448 10.016 21.525-8.888 1.984-17.335 6.414-24.238 13.317l-18.974 18.974c-4.494-5.355-6.945-12.05-6.945-19.125 0-7.966 3.102-15.455 8.734-21.087zm-73.099-45.181 22.505-22.505 8.901 8.9c9.021 9.021 12.221 21.919 8.899 33.8-3.348-2.341-6.826-4.516-10.435-6.508-4.672-2.578-10.393-2.873-15.302-.791-8.1 3.434-15.787 7.815-22.903 12.993-1.51-9.298 1.435-18.989 8.335-25.889zm20.424 26.706c.706-.299 1.527-.257 2.199.114 10.011 5.526 18.892 12.63 26.482 21.141l-9.117 9.117c-8.466 8.466-13.128 19.722-13.128 31.694s4.662 23.228 13.127 31.692l3.418 3.419-19.547 19.535c-4.93-2.091-10.127-3.36-15.385-3.788-.94-11.748-5.954-22.67-14.38-31.095l-3.175-3.175 18.856-18.856c5.087-5.089 5.087-13.371-.001-18.462l-10.277-10.276c-3.567-3.567-7.549-6.472-11.788-8.726 9.317-9.503 20.486-17.149 32.716-22.334zm-56.067 31.506c9.267 0 17.979 3.609 24.532 10.162l8.902 8.901-22.505 22.504c-11.628 11.629-30.547 11.629-42.174 0l-12.347-12.346 19.06-19.06c6.553-6.552 15.265-10.161 24.532-10.161zm-22.508 63.551c-2.312 2.312-4.707 5.215-6.441 7.922-1.006-.609-2.022-1.204-3.054-1.774-3.994-2.205-8.889-2.458-13.093-.678-2.287.969-4.519 2.04-6.702 3.19-.641-2.174-1.683-4.235-3.152-6.052-1.814-2.245-4.12-3.943-6.692-5.042l14.366-14.365 5.423 5.423c5.572 5.57 12.257 9.357 19.345 11.376zm-29.815-85.235 22.505-22.505 8.901 8.901c5.84 5.84 9.334 13.392 10.027 21.523-8.892 1.983-17.343 6.414-24.249 13.319l-18.974 18.974c-4.494-5.355-6.946-12.05-6.946-19.125.001-7.966 3.103-15.455 8.736-21.087zm-16.521 45.482c1.695 2.602 3.666 5.051 5.913 7.298l5.048 5.049-13.089 13.089c-1.322-4.773-3.051-9.44-5.147-13.906 2.068-4.071 4.495-7.929 7.275-11.53zm-93.849 51.788c.326-.403.913-.885 1.854-.885h7.104c3.998 0 7.293-3.137 7.491-7.13 1.084-21.928 13.646-43.815 30.547-53.228.635-.354 1.457-.354 2.092.001 16.897 9.415 29.455 31.303 30.539 53.227.197 3.993 3.493 7.13 7.491 7.13h7.104c.941 0 1.528.481 1.854.885.278.345.712 1.075.492 2.098-.37 1.724-.846 3.441-1.401 5.119-5.232 4.402-9.956 9.392-14.049 14.894-2.303-4.367-5.278-8.412-8.876-12.01l-10.276-10.275c-1.79-1.791-4.012-2.988-6.428-3.515v-13.296c0-4.143-3.358-7.5-7.5-7.5s-7.5 3.357-7.5 7.5v19.26c0 .166.014.328.025.49l-20.94 20.94c-1.623 1.623-3.094 3.341-4.415 5.135-7.954-6.997-13.456-16.292-15.7-26.742-.22-1.024.214-1.753.492-2.098zm71.67 42.228c-8.894 1.982-17.348 6.414-24.255 13.32l-18.972 18.973c-9.798-11.705-9.207-29.217 1.788-40.211l22.505-22.505 8.901 8.901c5.849 5.85 9.342 13.391 10.033 21.522zm-79.836 26.39c-13.451-23.966-12.821-34.481-10.608-36.694 1.605-1.604 7.18-2.12 17.604 1.613 2.837 3.321 6.025 6.366 9.531 9.09-4.506 15.253-.752 32.449 11.263 44.465l3.757 3.757-10.077 10.077c-8.589-11.409-15.871-22.333-21.47-32.308zm42.927 58.668c-4.235-4.853-8.294-9.679-12.154-14.451l11.38-11.38 6.714 6.714v-.001c2.241 2.242 4.683 4.208 7.277 5.901zm37.634-20.989c-7.966 0-15.454-3.103-21.087-8.734 0-.001 0-.001 0-.001l-12.347-12.346 19.06-19.06c13.527-13.528 35.538-13.527 49.065 0l8.901 8.9-22.505 22.506c-5.633 5.632-13.122 8.735-21.087 8.735zm34.651 26.459c-5.797-4.513-10.902-9.89-15.125-15.92 4.453-2.159 8.565-5.065 12.167-8.668l23.881-23.881c5.089-5.09 5.089-13.372 0-18.463l-10.276-10.276c-8.6-8.599-19.594-13.373-30.856-14.339 7.857-15.223 20.809-27.263 36.605-33.964 24.808 13.693 39.309 39.769 37.846 68.051-.322 6.224-1.419 12.292-3.247 18.14-5.121-4.112-12.647-3.795-17.395.951l-23.88 23.881c-4.222 4.222-7.497 9.137-9.72 14.488zm11.591 17.206c0-7.966 3.102-15.454 8.735-21.086l22.505-22.506 8.901 8.9c5.859 5.86 9.344 13.394 10.031 21.523-8.894 1.983-17.346 6.414-24.253 13.32l-18.974 18.974c-4.493-5.355-6.945-12.051-6.945-19.125zm66.553 85.926c-2.229 2.229-12.834 2.843-37.014-10.787-9.192-5.182-19.178-11.785-29.593-19.502l11.062-11.062 8.198 8.198c8.738 8.737 20.215 13.106 31.693 13.106 1.874 0 3.747-.129 5.609-.362 3.039 2.064 6.171 3.947 9.387 5.643 2.684 8.644 2.08 13.343.658 14.766zm19.037-75.168 8.901 8.902-22.505 22.505c-11.627 11.627-30.547 11.627-42.174 0l-12.347-12.347 19.06-19.06c13.527-13.528 35.537-13.527 49.065 0zm39.157-51.837c-4.353-.587-8.76-.895-13.198-.895-17.652 0-34.679 4.653-49.706 13.511-2.394-6.05-6.001-11.614-10.699-16.419 2.952-7.181 4.904-14.69 5.878-22.42 5.451 2.246 11.205 3.358 16.941 3.358 11.506-.001 22.936-4.473 31.675-13.212l23.88-23.881c3.374-3.374 4.497-8.147 3.398-12.466 5.541 1.266 10.915 3.18 16.027 5.693l-14.827 14.827c-8.73 8.73-13.538 20.338-13.538 32.685 0 6.744 1.444 13.264 4.169 19.219zm10.831-19.219c0-8.34 3.248-16.181 9.145-22.077l23.549-23.549 9.435 9.435c6.188 6.188 9.835 14.138 10.506 22.719-9.498 2.066-18.225 6.792-25.262 13.829l-19.9 19.9c-4.832-5.646-7.473-12.747-7.473-20.257zm89.284 10.964 9.435 9.435-23.549 23.548c-6.448 6.447-15.288 9.711-24.361 9.05-6.33-7.462-13.762-13.983-22.102-19.308-2.783-1.777-5.648-3.398-8.576-4.876l17.849-17.849c6.852-6.853 15.962-10.626 25.652-10.626s18.8 3.773 25.652 10.626zm26.167-60.086c-8.726 15.661-28.167 27.586-48.419 30.111-1.496-8.863-5.307-17.245-11.056-24.209h7.683c4.142 0 7.5-3.357 7.5-7.5s-3.358-7.5-7.5-7.5h-22.423c-2.389-2.019-5.379-3.126-8.542-3.126-2.984 0-5.812.99-8.128 2.795-3.187-1.806-6.473-3.408-9.84-4.799.893-3.262 2.118-6.409 3.663-9.42 5.735 2.6 12.006 3.979 18.492 3.979 11.635 0 22.585-4.414 30.964-12.433 20.087 2.792 39.101 14.731 47.608 30.008.353.636.353 1.458-.002 2.094z"/></g></svg>